<?xml version="1.0" standalone="no"?>
<!DOCTYPE svg PUBLIC "-//W3C//DTD SVG 20010904//EN"
 "http://www.w3.org/TR/2001/REC-SVG-20010904/DTD/svg10.dtd">
<svg version="1.0" xmlns="http://www.w3.org/2000/svg"
 width="482.000000pt" height="90.000000pt" viewBox="0 0 482.000000 90.000000"
 preserveAspectRatio="xMidYMid meet">

<g transform="translate(0.000000,90.000000) scale(0.100000,-0.100000)"
fill="#000000" stroke="none">
<path d="M175 818 c13 -24 89 -212 170 -418 80 -206 150 -378 154 -382 4 -5
76 171 161 389 85 218 166 409 178 425 l24 28 -29 0 c-24 0 -28 -4 -30 -30 -3
-38 -266 -711 -275 -702 -16 16 -268 678 -268 704 0 27 -1 28 -54 28 l-55 0
24 -42z"/>
<path d="M920 841 c13 -26 14 -780 0 -815 -9 -26 -9 -26 46 -26 50 0 55 2 48
18 -12 24 -17 745 -6 799 l10 43 -55 0 c-50 0 -53 -1 -43 -19z"/>
<path d="M1089 841 c15 -27 15 -795 1 -822 -10 -17 -7 -19 21 -19 25 0 29 3
20 14 -8 9 -10 124 -9 403 l3 390 265 -394 c146 -217 271 -399 278 -405 9 -8
12 70 12 388 0 220 4 414 9 432 9 30 8 32 -14 32 -22 0 -23 -3 -14 -28 5 -16
8 -171 7 -377 l-3 -349 -245 374 -246 375 -47 3 c-46 3 -48 2 -38 -17z"/>
<path d="M1765 828 c-4 -18 -8 -40 -11 -49 -3 -12 8 -10 53 12 54 27 196 55
215 43 14 -9 10 -808 -4 -822 -9 -9 2 -12 52 -12 50 0 61 3 52 12 -14 14 -18
813 -4 822 20 12 160 -16 213 -43 l55 -28 -9 49 -10 48 -298 0 -297 0 -7 -32z"/>
<path d="M2450 841 c13 -26 14 -780 0 -815 l-10 -26 269 0 269 0 6 36 c4 19
10 43 13 52 5 12 -1 11 -30 -7 -58 -36 -130 -51 -279 -58 l-137 -6 -11 27 c-6
16 -10 116 -10 233 l0 206 80 -5 c62 -4 87 -10 110 -27 l30 -22 0 59 0 59 -47
-23 c-34 -18 -63 -24 -110 -24 l-63 0 0 139 c0 76 3 153 7 171 l6 33 141 -6
c152 -7 224 -22 283 -58 29 -18 35 -19 30 -7 -3 9 -9 33 -13 52 l-6 36 -269 0
c-264 0 -269 0 -259 -19z"/>
<path d="M3060 834 c13 -33 13 -758 1 -802 l-10 -32 123 0 c148 0 221 12 302
51 114 54 184 158 206 307 15 101 2 197 -40 285 -72 155 -203 216 -464 217
l-128 0 10 -26z m250 -5 c215 -34 312 -177 297 -437 -9 -172 -67 -273 -189
-327 -51 -23 -81 -29 -161 -33 -78 -4 -101 -2 -108 9 -10 16 -13 758 -3 783 7
19 67 21 164 5z"/>
<path d="M3898 848 c16 -16 17 -799 2 -829 -10 -18 -7 -19 50 -19 57 0 60 1
50 19 -15 30 -14 813 2 829 9 9 -2 12 -52 12 -50 0 -61 -3 -52 -12z"/>
<path d="M4069 841 c15 -27 15 -795 1 -822 -10 -17 -7 -19 21 -19 25 0 29 3
20 14 -8 9 -10 124 -9 403 l3 390 265 -394 c146 -217 271 -399 278 -405 9 -8
12 70 12 388 0 220 4 414 9 432 9 30 8 32 -14 32 -22 0 -23 -3 -14 -28 5 -16
8 -171 7 -377 l-3 -349 -245 374 -246 375 -47 3 c-46 3 -48 2 -38 -17z"/>
<path d="M3763 110 c-44 -18 -38 -91 7 -105 56 -18 96 66 48 99 -25 18 -25 18
-55 6z"/>
</g>
</svg>
