<?xml version="1.0" encoding="UTF-8"?>
<svg version="1.1" xmlns="http://www.w3.org/2000/svg" width="204" height="203">
<path d="M0 0 C67.32 0 134.64 0 204 0 C204 66.99 204 133.98 204 203 C136.68 203 69.36 203 0 203 C0 136.01 0 69.02 0 0 Z " fill="#2B1E13" transform="translate(0,0)"/>
<path d="M0 0 C16.5 0 33 0 50 0 C50 0.66 50 1.32 50 2 C49.030625 2.309375 48.06125 2.61875 47.0625 2.9375 C44.15934208 3.69523342 44.15934208 3.69523342 43 5 C43.16720401 10.09972239 43.90967842 14.17522841 45.94140625 18.8515625 C46.39032227 19.90158447 46.83923828 20.95160645 47.30175781 22.03344727 C47.56484741 22.64560089 47.82793701 23.25775452 48.09899902 23.88845825 C51.28938208 31.36528368 54.37719214 38.88645128 57.49487305 46.39379883 C58.38032361 48.52317864 59.26772435 50.65174846 60.15698242 52.77954102 C61.44946586 55.87312297 62.73517904 58.96944125 64.01953125 62.06640625 C64.41944778 63.01947159 64.81936432 63.97253693 65.23139954 64.95448303 C65.59565536 65.83647873 65.95991119 66.71847443 66.33520508 67.62719727 C66.81888298 68.78869041 66.81888298 68.78869041 67.31233215 69.97364807 C68 72 68 72 68 75 C68.66 75 69.32 75 70 75 C70.12420822 74.27620651 70.24841644 73.55241302 70.37638855 72.8066864 C70.99163758 70.03763673 71.85302411 67.69258744 72.9777832 65.09301758 C73.3852327 64.1446553 73.79268219 63.19629303 74.21247864 62.2191925 C74.6541185 61.20455429 75.09575836 60.18991608 75.55078125 59.14453125 C76.2336042 57.55930916 76.2336042 57.55930916 76.93022156 55.94206238 C78.38643096 52.5635563 79.8491794 49.18793134 81.3125 45.8125 C82.76388526 42.45440713 84.21388234 39.09572178 85.66264343 35.73649597 C86.56352425 33.64873367 87.46610367 31.56170319 88.37068176 29.47554016 C90.37878524 24.83166595 92.3643154 20.1791991 94.28588867 15.4987793 C94.60812912 14.71520554 94.93036957 13.93163177 95.26237488 13.12431335 C96.24372564 10.2980857 96.44312859 7.95419057 96 5 C93.64046906 2.64046906 92.22104383 2.50858587 89 2 C89 1.34 89 0.68 89 0 C100.22 0 111.44 0 123 0 C123 0.66 123 1.32 123 2 C120.11914062 2.5859375 120.11914062 2.5859375 117.23828125 3.171875 C111.98121112 5.1168992 109.4158413 8.48545433 107.09770203 13.48008728 C106.78057755 14.19822098 106.46345306 14.91635468 106.13671875 15.65625 C105.78764969 16.41857437 105.43858063 17.18089874 105.07893372 17.96632385 C103.93565809 20.47195522 102.8114811 22.98566164 101.6875 25.5 C100.8916398 27.25493648 100.09475062 29.00940664 99.296875 30.76342773 C96.84493076 36.16687518 94.41973943 41.5820691 92 47 C91.43783783 48.256987 91.43783783 48.256987 90.86431885 49.53936768 C87.73256646 56.54265785 84.60786868 63.54902483 81.51000977 70.56738281 C78.66362734 77.01579672 75.80765929 83.45628812 72.8515625 89.85546875 C72.15063477 91.37418579 72.15063477 91.37418579 71.43554688 92.92358398 C70.60187314 94.7215424 69.76264016 96.51694133 68.91601562 98.30883789 C66.66780393 103.15742101 65.13379807 107.77259414 64 113 C61 112 61 112 59.28930664 108.99438477 C58.65223823 107.64839749 58.02669746 106.296919 57.41015625 104.94140625 C57.06969772 104.21449081 56.7292392 103.48757538 56.37846375 102.7386322 C55.26321117 100.35107216 54.16283117 97.95696865 53.0625 95.5625 C52.29222718 93.90583775 51.52106211 92.24959007 50.74902344 90.59375 C48.83396961 86.48002561 46.93077787 82.36095373 45.0322876 78.23956299 C43.58225702 75.09370052 42.12499354 71.95122287 40.66796875 68.80859375 C38.26670297 63.62159206 35.87629427 58.42966603 33.48876953 53.23632812 C29.1494787 43.80345845 24.79398309 34.37846195 20.39208984 24.97460938 C19.53534968 23.14393204 18.6809793 21.31214075 17.83056641 19.47851562 C16.90011987 17.47909233 15.95441273 15.48806385 15 13.5 C14.525625 12.4996875 14.05125 11.499375 13.5625 10.46875 C11.02932937 6.46634041 7.82705471 3.84165993 3.1875 2.75 C2.135625 2.5025 1.08375 2.255 0 2 C0 1.34 0 0.68 0 0 Z " fill="#C09879" transform="translate(41,48)"/>
</svg>
